# AST/ASF file generated using VICON BodyLanguage
# -----------------------------------------------
:version 1.10
:name VICON
:units
  mass 1.0
  length 0.45
  angle deg
:documentation
   .ast/.asf automatically generated from VICON data using
   VICON BodyBuilder and BodyLanguage model FoxedUp or BRILLIANT.MOD
:root
   order TX TY TZ RX RY RZ
   axis XYZ
   position 0 0 0  
   orientation 0 0 0 
:bonedata
  begin
     id 1 
     name lhipjoint
     direction 0.650112 -0.723553 0.232005 
     length 2.45805 
     axis 0 0 0  XYZ
  end
  begin
     id 2 
     name lfemur
     direction 0.34202 -0.939693 0  
     length 7.00073  
     axis 0 0 20  XYZ
    dof rx ry rz
    limits (-160.0 20.0)
           (-70.0 70.0)
           (-60.0 70.0)
  end
  begin
     id 3 
     name ltibia
     direction 0.34202 -0.939693 0   
     length 7.8748   
     axis 0 0 20   XYZ
    dof rx
    limits (-10.0 170.0)
  end
  begin
     id 4 
     name lfoot
     direction 0.0542825 -0.14914 0.987325   
     length 1.75978   
     axis -90 7.62852e-016 20   XYZ
    dof rx rz
    limits (-45.0 90.0)
           (-70.0 20.0)
  end
  begin
     id 5 
     name ltoes
     direction 1.53509e-011 -4.21906e-011 1   
     length 0.893912   
     axis -90 7.62852e-016 20   XYZ
    dof rx
    limits (-90.0 20.0)
  end
  begin
     id 6 
     name rhipjoint
     direction -0.637897 -0.733345 0.235145   
     length 2.42522  
     axis 0 0 0  XYZ 
  end
  begin
     id 7 
     name rfemur
     direction -0.34202 -0.939693 0   
     length 7.02549   
     axis 0 0 -20   XYZ
    dof rx ry rz
    limits (-160.0 20.0)
           (-70.0 70.0)
           (-70.0 60.0)
  end
  begin
     id 8 
     name rtibia
     direction -0.34202 -0.939693 0   
     length 7.71512   
     axis 0 0 -20   XYZ
    dof rx
    limits (-10.0 170.0)
 end
 begin
     id 9 
     name rfoot
     direction -0.0822618 -0.226012 0.970645   
     length 1.90014  
     axis -90 -7.62852e-016 -20   XYZ
    dof rx rz
    limits (-45.0 90.0)
           (-20.0 70.0)
  end
  begin
     id 10 
     name rtoes
     direction -1.53542e-011 -4.21872e-011 1   
     length 0.957341   
     axis -90 -7.62852e-016 -20   XYZ
    dof rx
    limits (-90.0 20.0)
  end
  begin
     id 11 
     name lowerback
     direction -0.0022947 0.999774 -0.0211557   
     length 1.89909   
     axis 0 0 0   XYZ
    dof rx ry rz
    limits (-20.0 45.0)
           (-30.0 30.0)
           (-30.0 30.0)
  end
  begin
     id 12 
     name upperback
     direction 0.0107737 0.998635 0.0511027   
     length 1.8853   
     axis 0 0 0   XYZ
    dof rx ry rz
    limits (-20.0 45.0)
           (-30.0 30.0)
           (-30.0 30.0)
  end
  begin
     id 13 
     name thorax
     direction 0.011824 0.998136 0.0598754   
     length 1.88911   
     axis 0 0 0   XYZ
    dof rx ry rz
    limits (-20.0 45.0)
           (-30.0 30.0)
           (-30.0 30.0)
  end
  begin
     id 14 
     name lowerneck
     direction -0.0685355 0.990319 0.120714   
     length 1.91222   
     axis 0 0 0   XYZ
    dof rx ry rz
    limits (-20.0 45.0)
           (-30.0 30.0)
           (-30.0 30.0)
  end
  begin
     id 15 
     name upperneck
     direction 0.0886204 0.955665 -0.280805   
     length 1.92526   
     axis 0 0 0   XYZ
    dof rx ry rz
    limits (-20.0 45.0)
           (-30.0 30.0)
           (-30.0 30.0)
  end
  begin
     id 16
     name head
     direction 0.0233423 0.993502 -0.111393  
     length 1.96056  
     axis 0 0 0   XYZ
    dof rx ry rz
    limits (-20.0 45.0)
           (-30.0 30.0)
           (-30.0 30.0)
  end
  begin
     id 17 
     name lclavicle
     direction 0.941873 0.32922 0.0670041  
     length 3.31705  
     axis 0 0 0   XYZ
    dof ry rz
    limits (-20.0 10.0)
           (0.0 20.0)
  end
  begin
     id 18 
     name lhumerus
     direction 1 -4.4898e-011 3.38707e-028   
     length 5.29277   
     axis 180 -30 -90   XYZ
    dof rx ry rz
    limits (-60.0 90.0)
           (-90.0 90.0)
           (-90.0 90.0)
  end
  begin
     id 19
     name lradius
     direction 1 -4.48952e-011 1.63213e-028   
     length 2.85226   
     axis 180 -30 -90   XYZ
    dof rx
    limits (-10.0 170.0)
  end
  begin
     id 20
     name lwrist
     direction 1 -4.49001e-011 1.27856e-027   
     length 1.42613   
     axis -1.61767e-015 90 90   XYZ
    dof ry
    limits (-180.0 0.0)
 end
  begin
     id 21 
     name lhand
     direction 1 -4.48976e-011 2.55931e-027   
     length 0.602097   
     axis -1.63363e-015 90 90   XYZ
    dof rx rz
    limits (-90.0 90.0)
           (-45.0 45.0)
  end
  begin
     id 22 
     name lfingers
     direction 1 -4.48986e-011 5.11684e-027   
     length 0.485426   
     axis -3.26723e-015 90 90   XYZ
    dof rx
    limits (0.0 90.0)
  end
  begin
     id 23
     name lthumb
     direction 0.707107 -6.34915e-011 0.707107   
     length 0.696978   
     axis -90 45 -2.25915e-014   XYZ
    dof rx rz
    limits (-45.0 45.0)
           (-45.0 45.0)
  end
  begin
     id 24 
     name rclavicle
     direction -0.939974 0.327078 0.0973096   
     length 3.10337  
     axis 0 0 0   XYZ 
    dof ry rz
    limits (-10.0 20.0)
           (-20.0 0.0)
  end
  begin
     id 25 
     name rhumerus
     direction -1 -4.48975e-011 1.83745e-027  
     length 5.13304   
     axis 180 30 90   XYZ
    dof rx ry rz
    limits (-90.0 60.0)
           (-90.0 90.0)
           (-90.0 90.0)
  end
  begin
     id 26 
     name rradius
     direction -1 -4.48977e-011 7.1775e-029   
     length 2.74305   
     axis 180 30 90   XYZ
    dof rx
    limits (-10.0 170.0)
  end
  begin
     id 27 
     name rwrist
     direction -1 -4.48977e-011 1.27963e-027   
     length 1.37152   
     axis -1.61767e-015 -90 -90   XYZ
    dof ry
    limits (-180.0 0.0)
  end
  begin
     id 28
     name rhand
     direction -1 -4.4888e-011 2.56782e-027   
     length 0.767976   
     axis -1.63363e-015 -90 -90   XYZ
    dof rx rz
    limits (-90.0 90.0)
           (-45.0 45.0)
  end
  begin
     id 29
     name rfingers
     direction -1 -4.48947e-011 5.12384e-027   
     length 0.619162   
     axis -3.26723e-015 -90 -90   XYZ
    dof rx
    limits (0.0 90.0)
  end
  begin
     id 30
     name rthumb
     direction -0.707107 -6.34857e-011 0.707107   
     length 0.888997   
     axis -90 -45 2.25915e-014   XYZ
    dof rx rz
    limits (-45.0 45.0)
           (-45.0 45.0)
  end
:hierarchy
  begin
    root lhipjoint rhipjoint lowerback
    lhipjoint lfemur
    lfemur ltibia
    ltibia lfoot
    lfoot ltoes
    rhipjoint rfemur
    rfemur rtibia
    rtibia rfoot
    rfoot rtoes
    lowerback upperback
    upperback thorax
    thorax lowerneck lclavicle rclavicle
    lowerneck upperneck
    upperneck head
    lclavicle lhumerus
    lhumerus lradius
    lradius lwrist
    lwrist lhand lthumb
    lhand lfingers
    rclavicle rhumerus
    rhumerus rradius
    rradius rwrist
    rwrist rhand rthumb
    rhand rfingers
  end

#!OML:ASF F:\VICON\USERDATA\INSTALL\rory3\rory3.ASF
:FULLY-SPECIFIED
:DEGREES
1620
root 0.572541 17.2721 0.392566 0.937421 14.8836 -1.0712
lowerback -3.5327 -1.90272 -0.446969
upperback -13.281 -2.67368 -1.94488
thorax -12.4093 -1.35721 -1.68228
lowerneck -2.49831 -10.2877 -18.7447
upperneck 17.4558 -15.2311 13.6985
head 8.31425 -7.65908 6.17463
rclavicle 1.19271e-015 -1.27222e-014
rhumerus -250.189 -63.1122 -437.568
rradius 20.2106
rwrist 32.9331
rhand -12.3009 11.8205
rfingers 7.12502
rthumb 13.767 -17.704
lclavicle 1.19271e-015 -1.27222e-014
lhumerus 63.8897 50.9772 32.7112
lradius 60.6952
lwrist 29.3396
lhand -8.65387 24.4632
lfingers 7.12502
lthumb 17.2796 53.715
rfemur 12.6855 0.0587296 20.0916
rtibia -2.38542e-014
rfoot -13.0751 -14.7327
rtoes -0.336937
lfemur -3.67877 -21.2753 -19.0611
ltibia 20.0943
lfoot -17.5594 0.0810908
ltoes -10.842
1621
root 0.570155 17.2687 0.402831 0.873142 14.6853 -1.03078
lowerback -3.71854 -1.79594 -0.360852
upperback -13.3372 -2.54285 -2.15907
thorax -12.3771 -1.31905 -1.97806
lowerneck -2.26427 -10.2954 -18.5216
upperneck 17.2776 -15.3083 13.8045
head 8.21512 -7.68582 6.17758
rclavicle 1.19271e-015 -2.14687e-014
rhumerus -246.443 -63.1897 -441.933
rradius 19.9378
rwrist 35.767
rhand -12.3819 11.7478
rfingers 7.12502
rthumb 13.6889 -17.782
lclavicle 1.19271e-015 -2.14687e-014
lhumerus 64.5165 50.7863 33.2412
lradius 58.8698
lwrist 29.0314
lhand -8.75567 24.6295
lfingers 7.12502
lthumb 17.1816 53.8899
rfemur 12.7792 0.248618 20.0702
rtibia 1.43125e-014
rfoot -13.1459 -14.7387
rtoes -0.408871
lfemur -3.5055 -21.2175 -19.1558
ltibia 20.092
lfoot -17.5258 -0.0594099
ltoes -9.56065
1622
root 0.567156 17.2652 0.414783 0.775823 14.4554 -1.03174
lowerback -3.83017 -1.79352 -0.322992
upperback -13.4184 -2.53595 -2.13516
thorax -12.4068 -1.31905 -1.97649
lowerneck -2.27692 -10.2517 -18.7174
upperneck 17.3508 -15.2487 13.8536
head 8.25194 -7.66721 6.23356
rclavicle -2.94201e-014 -1.51076e-014
rhumerus -242.204 -62.5548 -446.827
rradius 19.7548
rwrist 38.7966
rhand -12.2986 12.1441
rfingers 7.12502
rthumb 13.7693 -17.3802
lclavicle -2.94201e-014 -1.51076e-014
lhumerus 64.1367 51.1416 32.705
lradius 56.6725
lwrist 29.0836
lhand -8.50487 24.9136
lfingers 7.12502
lthumb 17.423 54.1528
rfemur 12.9027 0.470278 20.0966
rtibia -2.38542e-014
rfoot -13.1742 -14.7357
rtoes -0.841531
lfemur -3.29538 -21.1829 -19.2231
ltibia 20.1054
lfoot -17.5648 0.0786527
ltoes -9.53213
1623
root 0.564444 17.2619 0.424751 0.705809 14.2055 -1.07132
lowerback -3.98446 -1.79383 -0.261724
upperback -13.5126 -2.52667 -2.05981
thorax -12.4241 -1.31679 -1.93313
lowerneck -2.21687 -10.2108 -18.849
upperneck 17.3497 -15.1669 13.732
head 8.22772 -7.64814 6.22579
rclavicle 1.27222e-014 7.95139e-016
rhumerus -238.01 -61.682 -451.665
rradius 19.572
rwrist 41.7631
rhand -11.9348 12.4366
rfingers 7.12502
rthumb 14.1199 -17.0637
lclavicle 1.27222e-014 7.95139e-016
lhumerus 63.5601 51.4284 32.23
lradius 54.3203
lwrist 28.849
lhand -8.1743 25.2212
lfingers 7.12502
lthumb 17.7411 54.4318
rfemur 12.9644 0.711664 20.1625
rtibia -1.59028e-015
rfoot -13.1144 -14.7695
rtoes -1.1766
lfemur -3.1238 -21.2107 -19.2487
ltibia 20.0959
lfoot -17.742 0.666771
ltoes -11.2635
1624
root 0.559102 17.2606 0.432284 0.672481 13.9804 -1.11027
lowerback -4.1332 -1.79141 -0.182175
upperback -13.5353 -2.51665 -2.02858
thorax -12.3623 -1.31921 -1.94788
lowerneck -2.40079 -10.2283 -18.8315
upperneck 17.389 -15.1373 13.5944
head 8.25643 -7.63406 6.16925
rclavicle 1.47101e-014 3.18055e-015
rhumerus -233.804 -60.8101 -456.453
rradius 19.2205
rwrist 44.6113
rhand -11.9879 12.382
rfingers 7.12502
rthumb 14.0686 -17.1218
lclavicle 1.47101e-014 3.18055e-015
lhumerus 63.4591 51.6647 32.2996
lradius 51.6507
lwrist 28.088
lhand -8.03748 25.2048
lfingers 7.12502
lthumb 17.8728 54.4035
rfemur 12.979 0.92719 20.2376
rtibia -1.74931e-014
rfoot -13.0632 -14.7678
rtoes -0.933553
lfemur -3.03987 -21.1693 -19.23
ltibia 20.1029
lfoot -17.7247 0.846662
ltoes -11.6904
1625
root 0.55313 17.2583 0.43996 0.63221 13.7937 -1.02319
lowerback -4.20896 -1.8264 -0.243187
upperback -13.4646 -2.56277 -2.00576
thorax -12.2282 -1.33384 -1.8881
lowerneck -3.02071 -10.2529 -18.8357
upperneck 17.6418 -15.0801 13.558
head 8.44044 -7.58238 6.13494
rclavicle -3.57812e-015 -2.54444e-014
rhumerus -229.713 -59.8301 -461.157
rradius 18.9502
rwrist 47.2781
rhand -12.1851 12.0285
rfingers 7.12502
rthumb 13.8786 -17.4884
lclavicle -3.57812e-015 -2.54444e-014
lhumerus 63.5708 52.1601 32.6049
lradius 48.7701
lwrist 26.9069
lhand -7.89441 25.1176
lfingers 7.12502
lthumb 18.0104 54.3037
rfemur 13.0488 1.10437 20.1765
rtibia -1.27222e-014
rfoot -13.0719 -14.7642
rtoes -0.919385
lfemur -2.92662 -21.0534 -19.3563
ltibia 20.1164
lfoot -17.5529 0.596058
ltoes -10.6819
1626
root 0.547129 17.256 0.447604 0.548531 13.582 -1.02394
lowerback -4.25251 -1.861 -0.244348
upperback -13.461 -2.60518 -1.94904
thorax -12.1953 -1.3511 -1.82409
lowerneck -3.45153 -10.2157 -18.7898
upperneck 17.8945 -14.9594 13.4516
head 8.56955 -7.51165 6.08853
rclavicle -1.07344e-014 -2.54444e-014
rhumerus -226.476 -58.9339 -465.102
rradius 18.8004
rwrist 49.5822
rhand -12.2832 11.7821
rfingers 7.12502
rthumb 13.7841 -17.7412
lclavicle -1.07344e-014 -2.54444e-014
lhumerus 63.6995 52.6942 32.9997
lradius 45.9165
lwrist 25.8304
lhand -7.2762 25.7863
lfingers 7.12502
lthumb 18.6052 54.9166
rfemur 13.1386 1.30701 20.2069
rtibia -1.59028e-015
rfoot -13.0232 -14.755
rtoes -1.28817
lfemur -2.78659 -20.9268 -19.4042
ltibia 20.1379
lfoot -17.5749 0.816304
ltoes -11.4209
1627
root 0.540272 17.2525 0.452616 0.46965 13.3474 -1.06205
lowerback -4.40873 -1.86114 -0.189521
upperback -13.4664 -2.597 -1.89187
thorax -12.1056 -1.34973 -1.79733
lowerneck -3.55344 -10.176 -18.8478
upperneck 17.9725 -14.8725 13.3813
head 8.59824 -7.47558 6.08107
rclavicle 3.97569e-015 8.74653e-015
rhumerus -223.765 -58.3931 -468.415
rradius 18.6817
rwrist 51.1452
rhand -12.3324 11.6979
rfingers 7.12502
rthumb 13.7367 -17.8287
lclavicle 3.97569e-015 8.74653e-015
lhumerus 64.4147 53.3023 34.044
lradius 42.9482
lwrist 24.5545
lhand -6.23314 26.9392
lfingers 7.12502
lthumb 19.6082 55.9703
rfemur 13.1854 1.53153 20.2807
rtibia 7.95139e-015
rfoot -12.9795 -14.7511
rtoes -1.50825
lfemur -2.64505 -20.9149 -19.4138
ltibia 20.1475
lfoot -17.7851 1.4565
ltoes -13.2573
1628
root 0.532459 17.2506 0.455622 0.39775 13.1627 -1.06051
lowerback -4.55873 -1.84565 -0.176078
upperback -13.4513 -2.57368 -1.89346
thorax -11.9963 -1.3404 -1.81229
lowerneck -3.41552 -10.1749 -18.9118
upperneck 17.8527 -14.8818 13.401
head 8.54148 -7.48861 6.10216
rclavicle 1.39149e-014 2.46493e-014
rhumerus -221.103 -57.9935 -471.635
rradius 18.5604
rwrist 52.3719
rhand -12.3102 11.6567
rfingers 7.12502
rthumb 13.7581 -17.8684
lclavicle 1.39149e-014 2.46493e-014
lhumerus 65.6251 53.9112 35.7208
lradius 40.0063
lwrist 22.7359
lhand -5.38854 27.8733
lfingers 7.12502
lthumb 20.4201 56.8196
rfemur 13.231 1.70579 20.3159
rtibia 3.18055e-014
rfoot -12.9916 -14.7676
rtoes -1.20692
lfemur -2.51686 -20.9635 -19.4601
ltibia 20.1744
lfoot -17.9247 1.76667
ltoes -13.4663
1629
root 0.523905 17.2494 0.459034 0.351573 13.0306 -0.977243
lowerback -4.67982 -1.8327 -0.247292
upperback -13.4014 -2.56545 -2.0063
thorax -11.8666 -1.33702 -1.8993
lowerneck -3.38554 -10.1892 -18.7368
upperneck 17.7349 -14.9364 13.5075
head 8.49929 -7.49671 6.10535
rclavicle 3.53837e-014 2.38542e-015
rhumerus -218.169 -57.4769 -475.238
rradius 18.4276
rwrist 53.7289
rhand -12.3554 11.5356
rfingers 7.12502
rthumb 13.7145 -17.9925
lclavicle 3.53837e-014 2.38542e-015
lhumerus 67.3785 54.5671 37.9397
lradius 37.0508
lwrist 20.2443
lhand -4.6822 27.9924
lfingers 7.12502
lthumb 21.0987 56.8645
rfemur 13.2904 1.8281 20.2642
rtibia 1.59028e-014
rfoot -13.009 -14.7797
rtoes -1.47221
lfemur -2.41659 -20.9383 -19.57
ltibia 20.2062
lfoot -17.8827 1.85615
ltoes -13.691
1630
root 0.513625 17.2472 0.462547 0.234601 12.8474 -1.01934
lowerback -4.73482 -1.87794 -0.253764
upperback -13.3428 -2.62201 -1.95782
thorax -11.762 -1.36112 -1.84154
lowerneck -3.57299 -10.1524 -18.6884
upperneck 17.7199 -14.8663 13.5696
head 8.51636 -7.44759 6.12069
rclavicle -3.1408e-014 -1.59028e-014
rhumerus -215.606 -56.6366 -478.571
rradius 18.4477
rwrist 55.0977
rhand -12.2985 11.3739
rfingers 7.12502
rthumb 13.7693 -18.1505
lclavicle -3.1408e-014 -1.59028e-014
lhumerus 68.8672 55.4653 40.1383
lradius 34.2265
lwrist 17.3148
lhand -4.11897 27.7118
lfingers 7.12502
lthumb 21.6397 56.5225
rfemur 13.3862 1.99924 20.363
rtibia -4.77083e-015
rfoot -12.8859 -14.8386
rtoes -2.25834
lfemur -2.28071 -20.8381 -19.5515
ltibia 20.2661
lfoot -17.9619 2.06179
ltoes -14.3009
